<svg xmlns="http://www.w3.org/2000/svg" width="2400" height="1600" viewBox="0 0 2400 1600" fill="none" role="img" aria-labelledby="titleiys81f descoesacz">
  <title id="titleiys81f">History collection cover</title>
  <desc id="descoesacz">Maps, paper, archives, and timelines. Collection cover artwork at master resolution.</desc>
  
  
    <rect width="2400" height="1600" fill="#F7F0E1"/>
    <rect x="48" y="48" width="2304" height="1504" rx="64" fill="#E7D8BE" opacity="0.34"/>
    
        <rect x="415.5428571428571" y="226.74285714285713" width="1568.9142857142858" height="915.2" rx="77.25714285714287" fill="#fffaf1" stroke="#B88453" stroke-width="2.5" opacity="0.82"/>
        <path d="M 587.8857142857142 434.74285714285713 C 784 333.7142857142857 1021.7142857142857 369.37142857142857 1152.4571428571428 517.9428571428572 C 1306.9714285714285 678.4 1556.5714285714287 678.4 1824 523.8857142857144" stroke="#7A4A2A" stroke-width="20.8" stroke-linecap="round" stroke-linejoin="round" fill="none" opacity="0.55"/>
        <line x1="641.3714285714286" y1="345.6" x2="641.3714285714286" y2="999.3142857142857" stroke="#B88453" stroke-width="5.942857142857143" stroke-linecap="round" opacity="0.35" stroke-dasharray="8 10"/>
        <line x1="1039.542857142857" y1="345.6" x2="1039.542857142857" y2="999.3142857142857" stroke="#B88453" stroke-width="5.942857142857143" stroke-linecap="round" opacity="0.35" stroke-dasharray="8 10"/>
        <line x1="1437.7142857142858" y1="345.6" x2="1437.7142857142858" y2="999.3142857142857" stroke="#B88453" stroke-width="5.942857142857143" stroke-linecap="round" opacity="0.35" stroke-dasharray="8 10"/>
        <circle cx="641.3714285714286" cy="797.2571428571429" r="38.62857142857143" fill="#B94F3C" stroke="none" stroke-width="0" />
        <circle cx="1039.542857142857" cy="601.1428571428571" r="38.62857142857143" fill="#B88453" stroke="none" stroke-width="0" />
        <circle cx="1437.7142857142858" cy="731.8857142857144" r="38.62857142857143" fill="#7A4A2A" stroke="none" stroke-width="0" />
        <rect x="1526.857142857143" y="345.6" width="320.9142857142857" height="273.37142857142857" rx="47.542857142857144" fill="#ffffff" stroke="#7A4A2A" stroke-width="2" opacity="0.8"/>
        <line x1="1580.3428571428572" y1="405.02857142857147" x2="1794.2857142857142" y2="405.02857142857147" stroke="#B88453" stroke-width="5.942857142857143" stroke-linecap="round" />
        <line x1="1580.3428571428572" y1="470.40000000000003" x2="1794.2857142857142" y2="470.40000000000003" stroke="#B88453" stroke-width="5.942857142857143" stroke-linecap="round" />
        <line x1="1580.3428571428572" y1="535.7714285714286" x2="1705.142857142857" y2="535.7714285714286" stroke="#B88453" stroke-width="5.942857142857143" stroke-linecap="round" />
      
    <g transform="translate(1129.6 1421) scale(0.5866666666666667)" opacity="0.5">
        <path d="M20 60 C60 30 110 30 140 70 C170 110 200 120 220 100" stroke="#B88453" stroke-width="3" stroke-linecap="round" stroke-linejoin="round" fill="none" opacity="0.4"/>
        <line x1="50" y1="30" x2="50" y2="210" stroke="#7A4A2A" stroke-width="1.5" stroke-linecap="round" opacity="0.2" stroke-dasharray="6 8"/>
        <line x1="120" y1="30" x2="120" y2="210" stroke="#7A4A2A" stroke-width="1.5" stroke-linecap="round" opacity="0.2" stroke-dasharray="6 8"/>
        <line x1="190" y1="30" x2="190" y2="210" stroke="#7A4A2A" stroke-width="1.5" stroke-linecap="round" opacity="0.2" stroke-dasharray="6 8"/>
        <circle cx="50" cy="170" r="5" fill="#B94F3C" stroke="none" stroke-width="0" opacity="0.55"/>
        <circle cx="120" cy="110" r="5" fill="#B88453" stroke="none" stroke-width="0" opacity="0.55"/>
        <circle cx="190" cy="150" r="5" fill="#7A4A2A" stroke="none" stroke-width="0" opacity="0.55"/>
      </g>
    <line x1="96" y1="1421" x2="2304" y2="1421" stroke="#B88453" stroke-width="1" opacity="0.35"/>
    <g transform="translate(102 1350) scale(2.3125)">
      <rect width="64" height="64" rx="16" fill="#F7F0E1"/>
      
        <rect x="12" y="9" width="40" height="46" rx="10" fill="#F7F0E1" stroke="#7A4A2A" stroke-width="3"/>
        <path d="M20 18 C28 14 36 14 44 18" stroke="#B88453" stroke-width="3" stroke-linecap="round" stroke-linejoin="round" fill="none" />
        <line x1="20" y1="28" x2="44" y2="28" stroke="#B88453" stroke-width="2" stroke-linecap="round" />
        <line x1="20" y1="36" x2="44" y2="36" stroke="#B88453" stroke-width="2" stroke-linecap="round" />
        <circle cx="20" cy="46" r="3" fill="#B94F3C" stroke="none" stroke-width="0" />
        <circle cx="32" cy="46" r="3" fill="#B88453" stroke="none" stroke-width="0" />
        <circle cx="44" cy="46" r="3" fill="#7A4A2A" stroke="none" stroke-width="0" />
      
    </g>
  
</svg>
