<svg xmlns="http://www.w3.org/2000/svg" width="600" height="400" viewBox="0 0 600 400" fill="none" role="img" aria-labelledby="title50feqr descg6u6ck">
  <title id="title50feqr">History collection thumbnail</title>
  <desc id="descg6u6ck">Maps, paper, archives, and timelines. Collection thumbnail artwork.</desc>
  
  
    <rect width="600" height="400" fill="#F7F0E1"/>
    <rect x="12" y="12" width="576" height="376" rx="16" fill="#E7D8BE" opacity="0.34"/>
    
        <rect x="103.88571428571427" y="56.68571428571428" width="392.22857142857146" height="228.8" rx="19.314285714285717" fill="#fffaf1" stroke="#B88453" stroke-width="2.5" opacity="0.82"/>
        <path d="M 146.97142857142856 108.68571428571428 C 196 83.42857142857143 255.42857142857142 92.34285714285714 288.1142857142857 129.4857142857143 C 326.74285714285713 169.6 389.14285714285717 169.6 456 130.9714285714286" stroke="#7A4A2A" stroke-width="5.2" stroke-linecap="round" stroke-linejoin="round" fill="none" opacity="0.55"/>
        <line x1="160.34285714285716" y1="86.4" x2="160.34285714285716" y2="249.82857142857142" stroke="#B88453" stroke-width="1.4857142857142858" stroke-linecap="round" opacity="0.35" stroke-dasharray="8 10"/>
        <line x1="259.88571428571424" y1="86.4" x2="259.88571428571424" y2="249.82857142857142" stroke="#B88453" stroke-width="1.4857142857142858" stroke-linecap="round" opacity="0.35" stroke-dasharray="8 10"/>
        <line x1="359.42857142857144" y1="86.4" x2="359.42857142857144" y2="249.82857142857142" stroke="#B88453" stroke-width="1.4857142857142858" stroke-linecap="round" opacity="0.35" stroke-dasharray="8 10"/>
        <circle cx="160.34285714285716" cy="199.31428571428572" r="9.657142857142858" fill="#B94F3C" stroke="none" stroke-width="0" />
        <circle cx="259.88571428571424" cy="150.28571428571428" r="9.657142857142858" fill="#B88453" stroke="none" stroke-width="0" />
        <circle cx="359.42857142857144" cy="182.9714285714286" r="9.657142857142858" fill="#7A4A2A" stroke="none" stroke-width="0" />
        <rect x="381.7142857142857" y="86.4" width="80.22857142857143" height="68.34285714285714" rx="11.885714285714286" fill="#ffffff" stroke="#7A4A2A" stroke-width="2" opacity="0.8"/>
        <line x1="395.0857142857143" y1="101.25714285714287" x2="448.57142857142856" y2="101.25714285714287" stroke="#B88453" stroke-width="1.4857142857142858" stroke-linecap="round" />
        <line x1="395.0857142857143" y1="117.60000000000001" x2="448.57142857142856" y2="117.60000000000001" stroke="#B88453" stroke-width="1.4857142857142858" stroke-linecap="round" />
        <line x1="395.0857142857143" y1="133.94285714285715" x2="426.2857142857143" y2="133.94285714285715" stroke="#B88453" stroke-width="1.4857142857142858" stroke-linecap="round" />
      
    <g transform="translate(282.4 355) scale(0.14666666666666667)" opacity="0.5">
        <path d="M20 60 C60 30 110 30 140 70 C170 110 200 120 220 100" stroke="#B88453" stroke-width="3" stroke-linecap="round" stroke-linejoin="round" fill="none" opacity="0.4"/>
        <line x1="50" y1="30" x2="50" y2="210" stroke="#7A4A2A" stroke-width="1.5" stroke-linecap="round" opacity="0.2" stroke-dasharray="6 8"/>
        <line x1="120" y1="30" x2="120" y2="210" stroke="#7A4A2A" stroke-width="1.5" stroke-linecap="round" opacity="0.2" stroke-dasharray="6 8"/>
        <line x1="190" y1="30" x2="190" y2="210" stroke="#7A4A2A" stroke-width="1.5" stroke-linecap="round" opacity="0.2" stroke-dasharray="6 8"/>
        <circle cx="50" cy="170" r="5" fill="#B94F3C" stroke="none" stroke-width="0" opacity="0.55"/>
        <circle cx="120" cy="110" r="5" fill="#B88453" stroke="none" stroke-width="0" opacity="0.55"/>
        <circle cx="190" cy="150" r="5" fill="#7A4A2A" stroke="none" stroke-width="0" opacity="0.55"/>
      </g>
    <line x1="24" y1="355" x2="576" y2="355" stroke="#B88453" stroke-width="1" opacity="0.35"/>
    <g transform="translate(30 342) scale(0.4375)">
      <rect width="64" height="64" rx="16" fill="#F7F0E1"/>
      
        <rect x="12" y="9" width="40" height="46" rx="10" fill="#F7F0E1" stroke="#7A4A2A" stroke-width="3"/>
        <path d="M20 18 C28 14 36 14 44 18" stroke="#B88453" stroke-width="3" stroke-linecap="round" stroke-linejoin="round" fill="none" />
        <line x1="20" y1="28" x2="44" y2="28" stroke="#B88453" stroke-width="2" stroke-linecap="round" />
        <line x1="20" y1="36" x2="44" y2="36" stroke="#B88453" stroke-width="2" stroke-linecap="round" />
        <circle cx="20" cy="46" r="3" fill="#B94F3C" stroke="none" stroke-width="0" />
        <circle cx="32" cy="46" r="3" fill="#B88453" stroke="none" stroke-width="0" />
        <circle cx="44" cy="46" r="3" fill="#7A4A2A" stroke="none" stroke-width="0" />
      
    </g>
  
</svg>
