<svg xmlns="http://www.w3.org/2000/svg" width="320" height="220" viewBox="0 0 320 220" fill="none" role="img" aria-labelledby="titlenw8c0h descnu47do">
  <title id="titlenw8c0h">controlled</title>
  <desc id="descnu47do">A controlled comparison holds one condition steady so a single difference can be tested.</desc>
  
  
    <rect width="320" height="220" rx="24" fill="#EDF6FB"/>
    <rect x="12" y="12" width="296" height="196" rx="18" fill="#D4E8F2" opacity="0.34"/>
    <rect x="24" y="26" width="272" height="168" rx="20" fill="#ffffff" opacity="0.72" stroke="#65A3C8" stroke-width="2"/>
    <path d="M28 188 C92 172 136 178 188 186 C234 194 266 194 292 184" stroke="#E59A41" stroke-width="4" opacity="0.45" stroke-linecap="round"/>
    
        <rect x="54" y="64" width="84" height="98" rx="16" fill="#ffffff" stroke="#1F4E79" stroke-width="2.5"/>
        <rect x="182" y="64" width="84" height="98" rx="16" fill="#ffffff" stroke="#1F4E79" stroke-width="2.5"/>
        <line x1="96" y1="82" x2="96" y2="144" stroke="#65A3C8" stroke-width="4" stroke-linecap="round" />
        <line x1="224" y1="82" x2="224" y2="144" stroke="#65A3C8" stroke-width="4" stroke-linecap="round" />
        <circle cx="96" cy="110" r="10" fill="#E59A41" stroke="none" stroke-width="0" />
        <circle cx="224" cy="126" r="10" fill="#65A3C8" stroke="none" stroke-width="0" />
        <path d="M 138 110 L 182 110 M 174 115 L 182 110 L 174 105" stroke="#1F4E79" stroke-width="3" stroke-linecap="round" stroke-linejoin="round" fill="none" />
      
  
</svg>
