<svg xmlns="http://www.w3.org/2000/svg" width="320" height="220" viewBox="0 0 320 220" fill="none" role="img" aria-labelledby="title2u5m0c descpslk69">
  <title id="title2u5m0c">echo-chamber</title>
  <desc id="descpslk69">A thought rebounds between mirrored walls until the strongest echoes remain.</desc>
  
  
    <rect width="320" height="220" rx="24" fill="#F4F1EA"/>
    <rect x="12" y="12" width="296" height="196" rx="18" fill="#E5E0D7" opacity="0.34"/>
    <rect x="24" y="26" width="272" height="168" rx="20" fill="#ffffff" opacity="0.72" stroke="#7A8CA5" stroke-width="2"/>
    <path d="M28 188 C92 172 136 178 188 186 C234 194 266 194 292 184" stroke="#D48A3A" stroke-width="4" opacity="0.45" stroke-linecap="round"/>
    
        <rect x="28" y="48" width="80" height="124" rx="18" fill="#ffffff" stroke="#2E3F57" stroke-width="2.5" opacity="0.86"/>
        <rect x="212" y="48" width="80" height="124" rx="18" fill="#ffffff" stroke="#2E3F57" stroke-width="2.5" opacity="0.86"/>
        <path d="M110 110 C132 88 188 88 210 110" stroke="#D48A3A" stroke-width="4" stroke-linecap="round" stroke-linejoin="round" fill="none" />
        <path d="M98 110 C128 68 192 68 222 110" stroke="#7A8CA5" stroke-width="4" stroke-linecap="round" stroke-linejoin="round" fill="none" opacity="0.72"/>
        <path d="M88 110 C126 48 194 48 232 110" stroke="#2E3F57" stroke-width="4" stroke-linecap="round" stroke-linejoin="round" fill="none" opacity="0.48"/>
      
  
</svg>
