<svg xmlns="http://www.w3.org/2000/svg" width="320" height="220" viewBox="0 0 320 220" fill="none" role="img" aria-labelledby="titledv056k desctdcxwg">
  <title id="titledv056k">estimation</title>
  <desc id="desctdcxwg">A rough measure brackets the unknown before precision arrives.</desc>
  
  
    <rect width="320" height="220" rx="24" fill="#F2F1FB"/>
    <rect x="12" y="12" width="296" height="196" rx="18" fill="#DEDBF3" opacity="0.34"/>
    <rect x="24" y="26" width="272" height="168" rx="20" fill="#ffffff" opacity="0.72" stroke="#9E93DB" stroke-width="2"/>
    <path d="M28 188 C92 172 136 178 188 186 C234 194 266 194 292 184" stroke="#D59248" stroke-width="4" opacity="0.45" stroke-linecap="round"/>
    
        <line x1="74" y1="96" x2="74" y2="144" stroke="#9E93DB" stroke-width="4" stroke-linecap="round" />
        <line x1="246" y1="96" x2="246" y2="144" stroke="#9E93DB" stroke-width="4" stroke-linecap="round" />
        <line x1="74" y1="120" x2="246" y2="120" stroke="#5A46A6" stroke-width="5" stroke-linecap="round" />
        <circle cx="112" cy="120" r="8" fill="#D59248" stroke="none" stroke-width="0" />
        <circle cx="160" cy="120" r="8" fill="#9E93DB" stroke="none" stroke-width="0" />
        <circle cx="208" cy="120" r="8" fill="#D59248" stroke="none" stroke-width="0" />
        <path d="M110 78 C122 62 142 54 160 54 C178 54 198 62 210 78" stroke="#5A46A6" stroke-width="3" stroke-linecap="round" stroke-linejoin="round" fill="none" />
      
  
</svg>
