<svg xmlns="http://www.w3.org/2000/svg" width="320" height="220" viewBox="0 0 320 220" fill="none" role="img" aria-labelledby="titleyo3jhi desc63xxdf">
  <title id="titleyo3jhi">failure-analysis</title>
  <desc id="desc63xxdf">A breakdown is traced backward through the points where stress overcame design.</desc>
  
  
    <rect width="320" height="220" rx="24" fill="#EFF4FB"/>
    <rect x="12" y="12" width="296" height="196" rx="18" fill="#D8E2F3" opacity="0.34"/>
    <rect x="24" y="26" width="272" height="168" rx="20" fill="#ffffff" opacity="0.72" stroke="#7AA2D8" stroke-width="2"/>
    <path d="M28 188 C92 172 136 178 188 186 C234 194 266 194 292 184" stroke="#D88A4C" stroke-width="4" opacity="0.45" stroke-linecap="round"/>
    
        <rect x="54" y="88" width="212" height="56" rx="12" fill="#ffffff" stroke="#234A83" stroke-width="2.5"/>
        <path d="M92 90 C108 108 122 104 138 124 C150 140 164 136 178 122 C188 112 196 110 214 142" stroke="#D88A4C" stroke-width="5" stroke-linecap="round" stroke-linejoin="round" fill="none" />
        <circle cx="182" cy="122" r="8" fill="#7AA2D8" stroke="none" stroke-width="0" />
        <line x1="182" y1="122" x2="244" y2="76" stroke="#7AA2D8" stroke-width="3" stroke-linecap="round" />
        <rect x="228" y="54" width="44" height="28" rx="8" fill="#ffffff" stroke="#7AA2D8" stroke-width="2"/>
      
  
</svg>
