<svg xmlns="http://www.w3.org/2000/svg" width="320" height="220" viewBox="0 0 320 220" fill="none" role="img" aria-labelledby="titleitpoib descfx49mq">
  <title id="titleitpoib">feedback-loop</title>
  <desc id="descfx49mq">Output returns to the system as information, changing the next adjustment.</desc>
  
  
    <rect width="320" height="220" rx="24" fill="#EFF4FB"/>
    <rect x="12" y="12" width="296" height="196" rx="18" fill="#D8E2F3" opacity="0.34"/>
    <rect x="24" y="26" width="272" height="168" rx="20" fill="#ffffff" opacity="0.72" stroke="#7AA2D8" stroke-width="2"/>
    <path d="M28 188 C92 172 136 178 188 186 C234 194 266 194 292 184" stroke="#D88A4C" stroke-width="4" opacity="0.45" stroke-linecap="round"/>
    
        <rect x="56" y="88" width="58" height="44" rx="12" fill="#ffffff" stroke="#234A83" stroke-width="2.5"/>
        <rect x="132" y="88" width="58" height="44" rx="12" fill="#ffffff" stroke="#7AA2D8" stroke-width="2.5"/>
        <rect x="208" y="88" width="58" height="44" rx="12" fill="#ffffff" stroke="#D88A4C" stroke-width="2.5"/>
        <path d="M 114 110 L 132 110 M 124 115 L 132 110 L 124 105" stroke="#234A83" stroke-width="3" stroke-linecap="round" stroke-linejoin="round" fill="none" />
        <path d="M 190 110 L 208 110 M 200 115 L 208 110 L 200 105" stroke="#234A83" stroke-width="3" stroke-linecap="round" stroke-linejoin="round" fill="none" />
        <path d="M238 132 C238 168 84 168 84 132" stroke="#7AA2D8" stroke-width="4" stroke-linecap="round" stroke-linejoin="round" fill="none" />
        <path d="M78 140 L84 132 L90 140" stroke="#7AA2D8" stroke-width="4" stroke-linecap="round" stroke-linejoin="round" fill="none" />
      
  
</svg>
