<svg xmlns="http://www.w3.org/2000/svg" width="320" height="220" viewBox="0 0 320 220" fill="none" role="img" aria-labelledby="titlespd0fw descjoase5">
  <title id="titlespd0fw">iterate</title>
  <desc id="descjoase5">Each pass leaves a trace and nudges the work toward a stronger form.</desc>
  
  
    <rect width="320" height="220" rx="24" fill="#FBF0E8"/>
    <rect x="12" y="12" width="296" height="196" rx="18" fill="#F1D8C7" opacity="0.34"/>
    <rect x="24" y="26" width="272" height="168" rx="20" fill="#ffffff" opacity="0.72" stroke="#D38552" stroke-width="2"/>
    <path d="M28 188 C92 172 136 178 188 186 C234 194 266 194 292 184" stroke="#7F66D9" stroke-width="4" opacity="0.45" stroke-linecap="round"/>
    
        <rect x="44" y="64" width="56" height="92" rx="12" fill="#ffffff" stroke="#D38552" stroke-width="2.5" opacity="0.45"/>
        <rect x="116" y="56" width="64" height="100" rx="12" fill="#ffffff" stroke="#D38552" stroke-width="2.5" opacity="0.68"/>
        <rect x="196" y="44" width="80" height="112" rx="12" fill="#ffffff" stroke="#8A3C3B" stroke-width="2.5" opacity="0.92"/>
        <path d="M70 110 C82 98 88 98 92 122" stroke="#7F66D9" stroke-width="3" stroke-linecap="round" stroke-linejoin="round" fill="none" />
        <path d="M140 106 C156 86 168 88 172 126" stroke="#7F66D9" stroke-width="3" stroke-linecap="round" stroke-linejoin="round" fill="none" />
        <path d="M218 100 C244 70 258 80 262 132" stroke="#7F66D9" stroke-width="3" stroke-linecap="round" stroke-linejoin="round" fill="none" />
      
  
</svg>
