<svg xmlns="http://www.w3.org/2000/svg" width="320" height="220" viewBox="0 0 320 220" fill="none" role="img" aria-labelledby="titlejz664x descyil51k">
  <title id="titlejz664x">proof</title>
  <desc id="descyil51k">Statements connect step by step until a conclusion becomes unavoidable.</desc>
  
  
    <rect width="320" height="220" rx="24" fill="#F2F1FB"/>
    <rect x="12" y="12" width="296" height="196" rx="18" fill="#DEDBF3" opacity="0.34"/>
    <rect x="24" y="26" width="272" height="168" rx="20" fill="#ffffff" opacity="0.72" stroke="#9E93DB" stroke-width="2"/>
    <path d="M28 188 C92 172 136 178 188 186 C234 194 266 194 292 184" stroke="#D59248" stroke-width="4" opacity="0.45" stroke-linecap="round"/>
    
        <rect x="40" y="78" width="58" height="40" rx="12" fill="#ffffff" stroke="#5A46A6" stroke-width="2.5"/>
        <rect x="130" y="52" width="58" height="40" rx="12" fill="#ffffff" stroke="#9E93DB" stroke-width="2.5"/>
        <rect x="130" y="124" width="58" height="40" rx="12" fill="#ffffff" stroke="#9E93DB" stroke-width="2.5"/>
        <rect x="222" y="88" width="58" height="40" rx="12" fill="#ffffff" stroke="#D59248" stroke-width="2.5"/>
        <path d="M 98 98 L 130 72 M 126.9440511245422 80.92531100133705 L 130 72 L 120.63812487359755 73.16417100017439" stroke="#5A46A6" stroke-width="3" stroke-linecap="round" stroke-linejoin="round" fill="none" />
        <path d="M 98 98 L 130 144 M 121.32695808548377 140.28808082670912 L 130 144 L 129.53601010333864 134.5774359447231" stroke="#5A46A6" stroke-width="3" stroke-linecap="round" stroke-linejoin="round" fill="none" />
        <path d="M 188 72 L 222 108 M 212.8719459735412 105.61701244442004 L 222 108 L 220.14207749903937 98.75077711478288" stroke="#9E93DB" stroke-width="3" stroke-linecap="round" stroke-linejoin="round" fill="none" />
        <path d="M 188 144 L 222 108 M 220.14207749903937 117.24922288521712 L 222 108 L 212.8719459735412 110.38298755557996" stroke="#9E93DB" stroke-width="3" stroke-linecap="round" stroke-linejoin="round" fill="none" />
      
  
</svg>
