<svg xmlns="http://www.w3.org/2000/svg" width="320" height="220" viewBox="0 0 320 220" fill="none" role="img" aria-labelledby="titleob8nuo desczycc8i">
  <title id="titleob8nuo">two-second-witness</title>
  <desc id="desczycc8i">A fleeting glance, a quick decision. How much of the field did you actually encode?</desc>
  
  
    <rect width="320" height="220" rx="24" fill="#FBF1F6"/>
    <rect x="12" y="12" width="296" height="196" rx="18" fill="#EFD9E5" opacity="0.34"/>
    <rect x="24" y="26" width="272" height="168" rx="20" fill="#ffffff" opacity="0.72" stroke="#D38DAE" stroke-width="2"/>
    <path d="M28 188 C92 172 136 178 188 186 C234 194 266 194 292 184" stroke="#5B83C8" stroke-width="4" opacity="0.45" stroke-linecap="round"/>
    
        <rect x="48" y="52" width="224" height="116" rx="20" fill="#ffffff" stroke="#D38DAE" stroke-width="2.5"/>
        <circle cx="96" cy="88" r="9" fill="#D38DAE" stroke="none" stroke-width="0" /><circle cx="144" cy="88" r="9" fill="#D38DAE" stroke="none" stroke-width="0" /><circle cx="192" cy="88" r="9" fill="#D38DAE" stroke="none" stroke-width="0" /><circle cx="240" cy="88" r="9" fill="#D38DAE" stroke="none" stroke-width="0" />
        <circle cx="96" cy="132" r="9" fill="#D38DAE" stroke="none" stroke-width="0" /><circle cx="144" cy="132" r="9" fill="#5B83C8" stroke="none" stroke-width="0" /><circle cx="192" cy="132" r="9" fill="#D38DAE" stroke="none" stroke-width="0" /><circle cx="240" cy="132" r="9" fill="#D38DAE" stroke="none" stroke-width="0" />
        <path d="M144 22 C118 54 114 92 124 132 C132 164 148 176 160 182 C182 168 190 150 194 122 C198 86 182 50 168 22 Z" stroke="#8A3E67" stroke-width="4" stroke-linecap="round" stroke-linejoin="round" fill="rgba(91,131,200,0.14)" />
      
  
</svg>
