<svg xmlns="http://www.w3.org/2000/svg" width="320" height="220" viewBox="0 0 320 220" fill="none" role="img" aria-labelledby="titlem5uvo7 descb6v9nc">
  <title id="titlem5uvo7">uncertainty</title>
  <desc id="descb6v9nc">A measured result is surrounded by a range that widens as certainty falls away.</desc>
  
  
    <rect width="320" height="220" rx="24" fill="#EDF6FB"/>
    <rect x="12" y="12" width="296" height="196" rx="18" fill="#D4E8F2" opacity="0.34"/>
    <rect x="24" y="26" width="272" height="168" rx="20" fill="#ffffff" opacity="0.72" stroke="#65A3C8" stroke-width="2"/>
    <path d="M28 188 C92 172 136 178 188 186 C234 194 266 194 292 184" stroke="#E59A41" stroke-width="4" opacity="0.45" stroke-linecap="round"/>
    
        <line x1="56" y1="150" x2="264" y2="150" stroke="#65A3C8" stroke-width="3" stroke-linecap="round" opacity="0.45"/>
        <path d="M88 150 C124 102 156 88 202 102 C230 110 244 132 248 150" stroke="#1F4E79" stroke-width="4" stroke-linecap="round" stroke-linejoin="round" fill="none" />
        <path d="M88 150 C124 182 156 196 202 182 C230 174 244 162 248 150" stroke="#1F4E79" stroke-width="4" stroke-linecap="round" stroke-linejoin="round" fill="none" opacity="0.55"/>
        <circle cx="168" cy="142" r="10" fill="#E59A41" stroke="none" stroke-width="0" />
      
  
</svg>
