<svg xmlns="http://www.w3.org/2000/svg" width="320" height="220" viewBox="0 0 320 220" fill="none" role="img" aria-labelledby="title6x1mcr desc3bei5p">
  <title id="title6x1mcr">watershed</title>
  <desc id="desc3bei5p">Streams gather from ridge to river mouth, carrying every upstream decision downstream.</desc>
  
  
    <rect width="320" height="220" rx="24" fill="#EEF5EC"/>
    <rect x="12" y="12" width="296" height="196" rx="18" fill="#D8E6D2" opacity="0.34"/>
    <rect x="24" y="26" width="272" height="168" rx="20" fill="#ffffff" opacity="0.72" stroke="#78A67C" stroke-width="2"/>
    <path d="M28 188 C92 172 136 178 188 186 C234 194 266 194 292 184" stroke="#4A8CC7" stroke-width="4" opacity="0.45" stroke-linecap="round"/>
    
        <path d="M68 56 C88 90 100 110 112 130 C126 154 140 168 160 184" stroke="#245B45" stroke-width="5" stroke-linecap="round" stroke-linejoin="round" fill="none" />
        <path d="M160 184 C184 168 198 154 210 130 C222 110 234 92 252 56" stroke="#4A8CC7" stroke-width="5" stroke-linecap="round" stroke-linejoin="round" fill="none" />
        <path d="M112 130 C96 126 82 132 68 144" stroke="#78A67C" stroke-width="3" stroke-linecap="round" stroke-linejoin="round" fill="none" />
        <path d="M210 130 C226 126 240 132 252 144" stroke="#78A67C" stroke-width="3" stroke-linecap="round" stroke-linejoin="round" fill="none" />
        <line x1="60" y1="48" x2="260" y2="48" stroke="#78A67C" stroke-width="2" stroke-linecap="round" opacity="0.35" stroke-dasharray="6 8"/>
        <line x1="160" y1="184" x2="160" y2="204" stroke="#245B45" stroke-width="4" stroke-linecap="round" />
      
  
</svg>
