<svg xmlns="http://www.w3.org/2000/svg" width="3840" height="1600" viewBox="0 0 3840 1600" fill="none" role="img" aria-labelledby="title614f1q descfrecq5">
  <title id="title614f1q">ITTYBITTYBITES Library Season 1 hero</title>
  <desc id="descfrecq5">Wide editorial hero banner with an open left zone for a text overlay and a grid of eight collection pattern tiles on the right.</desc>
  
  
    <rect width="3840" height="1600" fill="#F4F1EA"/>
    <rect x="40" y="40" width="3760" height="1520" rx="60" fill="#E5E0D7" opacity="0.4"/>
    
    <g transform="translate(300 360)" opacity="0.12">
      <path d="M0 0 H520 A40 40 0 0 1 560 40 V900 L280 700 L0 900 V40 A40 40 0 0 1 40 0 Z" fill="none" stroke="#2E3F57" stroke-width="14"/>
      <line x1="80" y1="220" x2="480" y2="220" stroke="#D48A3A" stroke-width="14"/>
    </g>
    <line x1="300" y1="360" x2="300" y2="1240" stroke="#2E3F57" stroke-width="4" opacity="0.18"/>
    <g>
      <clipPath id="hero-clip-foundations"><rect x="2020" y="360" width="380" height="380" rx="68"/></clipPath>
      <g clip-path="url(#hero-clip-foundations)">
        <rect x="2020" y="360" width="380" height="380" fill="#F4F1EA"/>
        <g transform="translate(2020 360) scale(1.5833333333333333)">
        <line x1="0" y1="40" x2="240" y2="40" stroke="#7A8CA5" stroke-width="1.5" stroke-linecap="round" opacity="0.35"/>
        <line x1="0" y1="120" x2="240" y2="120" stroke="#7A8CA5" stroke-width="1.5" stroke-linecap="round" opacity="0.35"/>
        <line x1="0" y1="200" x2="240" y2="200" stroke="#7A8CA5" stroke-width="1.5" stroke-linecap="round" opacity="0.35"/>
        <line x1="40" y1="0" x2="40" y2="240" stroke="#7A8CA5" stroke-width="1.5" stroke-linecap="round" opacity="0.35"/>
        <line x1="120" y1="0" x2="120" y2="240" stroke="#7A8CA5" stroke-width="1.5" stroke-linecap="round" opacity="0.35"/>
        <line x1="200" y1="0" x2="200" y2="240" stroke="#7A8CA5" stroke-width="1.5" stroke-linecap="round" opacity="0.35"/>
        <path d="M40 200 L120 40 L200 200" stroke="#D48A3A" stroke-width="3" stroke-linecap="round" stroke-linejoin="round" fill="none" opacity="0.5"/>
      </g>
      </g>
      <rect x="2020" y="360" width="380" height="380" rx="68" fill="none" stroke="#7A8CA5" stroke-width="3" opacity="0.8"/>
      <clipPath id="hero-clip-history"><rect x="2430" y="360" width="380" height="380" rx="68"/></clipPath>
      <g clip-path="url(#hero-clip-history)">
        <rect x="2430" y="360" width="380" height="380" fill="#F7F0E1"/>
        <g transform="translate(2430 360) scale(1.5833333333333333)">
        <path d="M20 60 C60 30 110 30 140 70 C170 110 200 120 220 100" stroke="#B88453" stroke-width="3" stroke-linecap="round" stroke-linejoin="round" fill="none" opacity="0.4"/>
        <line x1="50" y1="30" x2="50" y2="210" stroke="#7A4A2A" stroke-width="1.5" stroke-linecap="round" opacity="0.2" stroke-dasharray="6 8"/>
        <line x1="120" y1="30" x2="120" y2="210" stroke="#7A4A2A" stroke-width="1.5" stroke-linecap="round" opacity="0.2" stroke-dasharray="6 8"/>
        <line x1="190" y1="30" x2="190" y2="210" stroke="#7A4A2A" stroke-width="1.5" stroke-linecap="round" opacity="0.2" stroke-dasharray="6 8"/>
        <circle cx="50" cy="170" r="5" fill="#B94F3C" stroke="none" stroke-width="0" opacity="0.55"/>
        <circle cx="120" cy="110" r="5" fill="#B88453" stroke="none" stroke-width="0" opacity="0.55"/>
        <circle cx="190" cy="150" r="5" fill="#7A4A2A" stroke="none" stroke-width="0" opacity="0.55"/>
      </g>
      </g>
      <rect x="2430" y="360" width="380" height="380" rx="68" fill="none" stroke="#B88453" stroke-width="3" opacity="0.8"/>
      <clipPath id="hero-clip-science"><rect x="2840" y="360" width="380" height="380" rx="68"/></clipPath>
      <g clip-path="url(#hero-clip-science)">
        <rect x="2840" y="360" width="380" height="380" fill="#EDF6FB"/>
        <g transform="translate(2840 360) scale(1.5833333333333333)">
        <line x1="0" y1="60" x2="240" y2="60" stroke="#65A3C8" stroke-width="1" stroke-linecap="round" opacity="0.25"/>
        <line x1="0" y1="120" x2="240" y2="120" stroke="#65A3C8" stroke-width="1" stroke-linecap="round" opacity="0.25"/>
        <line x1="0" y1="180" x2="240" y2="180" stroke="#65A3C8" stroke-width="1" stroke-linecap="round" opacity="0.25"/>
        <line x1="60" y1="0" x2="60" y2="240" stroke="#65A3C8" stroke-width="1" stroke-linecap="round" opacity="0.25"/>
        <line x1="120" y1="0" x2="120" y2="240" stroke="#65A3C8" stroke-width="1" stroke-linecap="round" opacity="0.25"/>
        <line x1="180" y1="0" x2="180" y2="240" stroke="#65A3C8" stroke-width="1" stroke-linecap="round" opacity="0.25"/>
        <path d="M20 170 C60 150 80 100 120 110 C160 120 170 70 220 60" stroke="#1F4E79" stroke-width="3" stroke-linecap="round" stroke-linejoin="round" fill="none" opacity="0.55"/>
        <circle cx="80" cy="100" r="5" fill="#E59A41" stroke="none" stroke-width="0" opacity="0.7"/>
      </g>
      </g>
      <rect x="2840" y="360" width="380" height="380" rx="68" fill="none" stroke="#65A3C8" stroke-width="3" opacity="0.8"/>
      <clipPath id="hero-clip-nature"><rect x="3250" y="360" width="380" height="380" rx="68"/></clipPath>
      <g clip-path="url(#hero-clip-nature)">
        <rect x="3250" y="360" width="380" height="380" fill="#EEF5EC"/>
        <g transform="translate(3250 360) scale(1.5833333333333333)">
        <path d="M20 30 C40 70 60 90 90 110 C130 140 150 170 160 210" stroke="#78A67C" stroke-width="3" stroke-linecap="round" stroke-linejoin="round" fill="none" opacity="0.35"/>
        <path d="M120 20 C110 70 130 110 170 140 C200 160 215 190 220 220" stroke="#4A8CC7" stroke-width="3" stroke-linecap="round" stroke-linejoin="round" fill="none" opacity="0.35"/>
        <path d="M90 110 C70 120 55 135 40 160" stroke="#245B45" stroke-width="2" stroke-linecap="round" stroke-linejoin="round" fill="none" opacity="0.35"/>
        <path d="M170 140 C190 130 205 115 220 90" stroke="#245B45" stroke-width="2" stroke-linecap="round" stroke-linejoin="round" fill="none" opacity="0.35"/>
      </g>
      </g>
      <rect x="3250" y="360" width="380" height="380" rx="68" fill="none" stroke="#78A67C" stroke-width="3" opacity="0.8"/>
      <clipPath id="hero-clip-creativity"><rect x="2020" y="770" width="380" height="380" rx="68"/></clipPath>
      <g clip-path="url(#hero-clip-creativity)">
        <rect x="2020" y="770" width="380" height="380" fill="#FBF0E8"/>
        <g transform="translate(2020 770) scale(1.5833333333333333)">
        <rect x="20" y="28" width="90" height="58" rx="18" fill="#D38552" stroke="#8A3C3B" opacity="0.3" stroke-width="1.5"/>
        <rect x="84" y="62" width="102" height="70" rx="18" fill="#7F66D9" stroke="#8A3C3B" opacity="0.28" stroke-width="1.5"/>
        <rect x="150" y="28" width="70" height="110" rx="18" fill="#F1D8C7" stroke="#8A3C3B" opacity="0.45" stroke-width="1.5"/>
        <path d="M26 178 C54 152 84 188 118 156 C144 132 168 162 208 144" stroke="#8A3C3B" stroke-width="3" stroke-linecap="round" stroke-linejoin="round" fill="none" opacity="0.45"/>
      </g>
      </g>
      <rect x="2020" y="770" width="380" height="380" rx="68" fill="none" stroke="#D38552" stroke-width="3" opacity="0.8"/>
      <clipPath id="hero-clip-engineering"><rect x="2430" y="770" width="380" height="380" rx="68"/></clipPath>
      <g clip-path="url(#hero-clip-engineering)">
        <rect x="2430" y="770" width="380" height="380" fill="#EFF4FB"/>
        <g transform="translate(2430 770) scale(1.5833333333333333)">
        <line x1="20" y1="180" x2="220" y2="180" stroke="#7AA2D8" stroke-width="2" stroke-linecap="round" opacity="0.4"/>
        <line x1="40" y1="180" x2="90" y2="70" stroke="#234A83" stroke-width="2" stroke-linecap="round" opacity="0.45"/>
        <line x1="140" y1="180" x2="190" y2="70" stroke="#234A83" stroke-width="2" stroke-linecap="round" opacity="0.45"/>
        <line x1="90" y1="70" x2="140" y2="70" stroke="#D88A4C" stroke-width="2" stroke-linecap="round" opacity="0.55"/>
        <line x1="20" y1="40" x2="220" y2="40" stroke="#7AA2D8" stroke-width="1" stroke-linecap="round" opacity="0.18" stroke-dasharray="6 8"/>
        <line x1="20" y1="110" x2="220" y2="110" stroke="#7AA2D8" stroke-width="1" stroke-linecap="round" opacity="0.18" stroke-dasharray="6 8"/>
        <line x1="80" y1="20" x2="80" y2="220" stroke="#7AA2D8" stroke-width="1" stroke-linecap="round" opacity="0.18" stroke-dasharray="6 8"/>
        <line x1="160" y1="20" x2="160" y2="220" stroke="#7AA2D8" stroke-width="1" stroke-linecap="round" opacity="0.18" stroke-dasharray="6 8"/>
      </g>
      </g>
      <rect x="2430" y="770" width="380" height="380" rx="68" fill="none" stroke="#7AA2D8" stroke-width="3" opacity="0.8"/>
      <clipPath id="hero-clip-mathematics"><rect x="2840" y="770" width="380" height="380" rx="68"/></clipPath>
      <g clip-path="url(#hero-clip-mathematics)">
        <rect x="2840" y="770" width="380" height="380" fill="#F2F1FB"/>
        <g transform="translate(2840 770) scale(1.5833333333333333)">
        <path d="M30 170 C30 90 90 36 152 36 C192 36 210 70 210 96 C210 130 182 152 150 152 C122 152 98 132 98 104 C98 76 120 56 146 56" stroke="#5A46A6" stroke-width="3" stroke-linecap="round" stroke-linejoin="round" fill="none" opacity="0.45"/>
        <line x1="20" y1="120" x2="220" y2="120" stroke="#9E93DB" stroke-width="1.5" stroke-linecap="round" opacity="0.22"/>
        <line x1="120" y1="20" x2="120" y2="220" stroke="#9E93DB" stroke-width="1.5" stroke-linecap="round" opacity="0.22"/>
        <circle cx="146" cy="56" r="5" fill="#D59248" stroke="none" stroke-width="0" opacity="0.7"/>
      </g>
      </g>
      <rect x="2840" y="770" width="380" height="380" rx="68" fill="none" stroke="#9E93DB" stroke-width="3" opacity="0.8"/>
      <clipPath id="hero-clip-society-mind"><rect x="3250" y="770" width="380" height="380" rx="68"/></clipPath>
      <g clip-path="url(#hero-clip-society-mind)">
        <rect x="3250" y="770" width="380" height="380" fill="#FBF1F6"/>
        <g transform="translate(3250 770) scale(1.5833333333333333)">
        <circle cx="60" cy="70" r="8" fill="#D38DAE" stroke="none" stroke-width="0" opacity="0.65"/>
        <circle cx="180" cy="60" r="8" fill="#5B83C8" stroke="none" stroke-width="0" opacity="0.65"/>
        <circle cx="120" cy="170" r="8" fill="#8A3E67" stroke="none" stroke-width="0" opacity="0.65"/>
        <path d="M68 70 C90 60 110 70 120 90 C130 110 145 120 172 120" stroke="#8A3E67" stroke-width="3" stroke-linecap="round" stroke-linejoin="round" fill="none" opacity="0.4"/>
        <path d="M72 80 C84 120 94 134 114 162" stroke="#5B83C8" stroke-width="2" stroke-linecap="round" stroke-linejoin="round" fill="none" opacity="0.45"/>
        <path d="M170 68 C152 88 144 110 132 164" stroke="#D38DAE" stroke-width="2" stroke-linecap="round" stroke-linejoin="round" fill="none" opacity="0.45"/>
        <path d="M24 26 h46 l12 12 h-46 z" stroke="#8A3E67" stroke-width="2" stroke-linecap="round" stroke-linejoin="round" fill="#EFD9E5" opacity="0.7"/>
      </g>
      </g>
      <rect x="3250" y="770" width="380" height="380" rx="68" fill="none" stroke="#D38DAE" stroke-width="3" opacity="0.8"/></g>
    <path d="M1980 1210 C 2420 1420 3020 1360 3720 1440" stroke="#D48A3A" stroke-width="12" opacity="0.4" stroke-linecap="round" fill="none"/>
  
</svg>
