<svg xmlns="http://www.w3.org/2000/svg" width="2400" height="1600" viewBox="0 0 2400 1600" fill="none" role="img" aria-labelledby="titleewdco8 descwfqd3r">
  <title id="titleewdco8">Science collection cover</title>
  <desc id="descwfqd3r">Observation, instruments, experiment, and measured uncertainty. Collection cover artwork at master resolution.</desc>
  
  
    <rect width="2400" height="1600" fill="#EDF6FB"/>
    <rect x="48" y="48" width="2304" height="1504" rx="64" fill="#D4E8F2" opacity="0.34"/>
    
        <rect x="409.59999999999997" y="226.74285714285713" width="1580.8" height="915.2" rx="77.25714285714287" fill="#ffffff" stroke="#65A3C8" stroke-width="2.5" opacity="0.8"/>
        <line x1="534.4" y1="345.6" x2="534.4" y2="1040.9142857142856" stroke="#65A3C8" stroke-width="4.457142857142857" stroke-linecap="round" opacity="0.28"/>
        <line x1="831.5428571428571" y1="345.6" x2="831.5428571428571" y2="1040.9142857142856" stroke="#65A3C8" stroke-width="4.457142857142857" stroke-linecap="round" opacity="0.28"/>
        <line x1="1128.6857142857143" y1="345.6" x2="1128.6857142857143" y2="1040.9142857142856" stroke="#65A3C8" stroke-width="4.457142857142857" stroke-linecap="round" opacity="0.28"/>
        <line x1="1425.8285714285714" y1="345.6" x2="1425.8285714285714" y2="1040.9142857142856" stroke="#65A3C8" stroke-width="4.457142857142857" stroke-linecap="round" opacity="0.28"/>
        <line x1="1722.9714285714285" y1="345.6" x2="1722.9714285714285" y2="1040.9142857142856" stroke="#65A3C8" stroke-width="4.457142857142857" stroke-linecap="round" opacity="0.28"/>
        <line x1="504.68571428571425" y1="476.34285714285716" x2="1895.3142857142857" y2="476.34285714285716" stroke="#65A3C8" stroke-width="4.457142857142857" stroke-linecap="round" opacity="0.28"/>
        <line x1="504.68571428571425" y1="714.0571428571429" x2="1895.3142857142857" y2="714.0571428571429" stroke="#65A3C8" stroke-width="4.457142857142857" stroke-linecap="round" opacity="0.28"/>
        <line x1="504.68571428571425" y1="951.7714285714286" x2="1895.3142857142857" y2="951.7714285714286" stroke="#65A3C8" stroke-width="4.457142857142857" stroke-linecap="round" opacity="0.28"/>
        <path d="M 558.1714285714286 933.9428571428572 C 724.5714285714286 880.4571428571429 843.4285714285714 613.0285714285715 1039.542857142857 672.4571428571429 C 1271.3142857142857 731.8857142857144 1408 500.11428571428576 1829.942857142857 434.74285714285713" stroke="#1F4E79" stroke-width="23.771428571428572" stroke-linecap="round" stroke-linejoin="round" fill="none" />
        <circle cx="1039.542857142857" cy="672.4571428571429" r="35.65714285714286" fill="#E59A41" stroke="none" stroke-width="0" />
        <circle cx="1408" cy="500.11428571428576" r="35.65714285714286" fill="#E59A41" stroke="none" stroke-width="0" />
        <circle cx="1639.7714285714285" cy="922.0571428571429" r="112.91428571428571" fill="none" stroke="#1F4E79" stroke-width="17.82857142857143" />
        <line x1="1717.0285714285715" y1="1005.2571428571429" x2="1853.7142857142858" y2="1130.057142857143" stroke="#1F4E79" stroke-width="23.771428571428572" stroke-linecap="round" />
      
    <g transform="translate(1129.6 1421) scale(0.5866666666666667)" opacity="0.5">
        <line x1="0" y1="60" x2="240" y2="60" stroke="#65A3C8" stroke-width="1" stroke-linecap="round" opacity="0.25"/>
        <line x1="0" y1="120" x2="240" y2="120" stroke="#65A3C8" stroke-width="1" stroke-linecap="round" opacity="0.25"/>
        <line x1="0" y1="180" x2="240" y2="180" stroke="#65A3C8" stroke-width="1" stroke-linecap="round" opacity="0.25"/>
        <line x1="60" y1="0" x2="60" y2="240" stroke="#65A3C8" stroke-width="1" stroke-linecap="round" opacity="0.25"/>
        <line x1="120" y1="0" x2="120" y2="240" stroke="#65A3C8" stroke-width="1" stroke-linecap="round" opacity="0.25"/>
        <line x1="180" y1="0" x2="180" y2="240" stroke="#65A3C8" stroke-width="1" stroke-linecap="round" opacity="0.25"/>
        <path d="M20 170 C60 150 80 100 120 110 C160 120 170 70 220 60" stroke="#1F4E79" stroke-width="3" stroke-linecap="round" stroke-linejoin="round" fill="none" opacity="0.55"/>
        <circle cx="80" cy="100" r="5" fill="#E59A41" stroke="none" stroke-width="0" opacity="0.7"/>
      </g>
    <line x1="96" y1="1421" x2="2304" y2="1421" stroke="#65A3C8" stroke-width="1" opacity="0.35"/>
    <g transform="translate(102 1350) scale(2.3125)">
      <rect width="64" height="64" rx="16" fill="#EDF6FB"/>
      
        <circle cx="24" cy="24" r="12" fill="none" stroke="#1F4E79" stroke-width="3" />
        <circle cx="24" cy="24" r="4" fill="#E59A41" stroke="none" stroke-width="0" />
        <line x1="36" y1="36" x2="50" y2="50" stroke="#1F4E79" stroke-width="4" stroke-linecap="round" />
        <rect x="12" y="12" width="40" height="40" rx="12" fill="none" stroke="#65A3C8" stroke-width="1.5" opacity="0.45" stroke-dasharray="4 5"/>
      
    </g>
  
</svg>
