<svg xmlns="http://www.w3.org/2000/svg" width="600" height="400" viewBox="0 0 600 400" fill="none" role="img" aria-labelledby="titledrhn9a descokyu7q">
  <title id="titledrhn9a">Science collection thumbnail</title>
  <desc id="descokyu7q">Observation, instruments, experiment, and measured uncertainty. Collection thumbnail artwork.</desc>
  
  
    <rect width="600" height="400" fill="#EDF6FB"/>
    <rect x="12" y="12" width="576" height="376" rx="16" fill="#D4E8F2" opacity="0.34"/>
    
        <rect x="102.39999999999999" y="56.68571428571428" width="395.2" height="228.8" rx="19.314285714285717" fill="#ffffff" stroke="#65A3C8" stroke-width="2.5" opacity="0.8"/>
        <line x1="133.6" y1="86.4" x2="133.6" y2="260.2285714285714" stroke="#65A3C8" stroke-width="1.1142857142857143" stroke-linecap="round" opacity="0.28"/>
        <line x1="207.88571428571427" y1="86.4" x2="207.88571428571427" y2="260.2285714285714" stroke="#65A3C8" stroke-width="1.1142857142857143" stroke-linecap="round" opacity="0.28"/>
        <line x1="282.1714285714286" y1="86.4" x2="282.1714285714286" y2="260.2285714285714" stroke="#65A3C8" stroke-width="1.1142857142857143" stroke-linecap="round" opacity="0.28"/>
        <line x1="356.45714285714286" y1="86.4" x2="356.45714285714286" y2="260.2285714285714" stroke="#65A3C8" stroke-width="1.1142857142857143" stroke-linecap="round" opacity="0.28"/>
        <line x1="430.74285714285713" y1="86.4" x2="430.74285714285713" y2="260.2285714285714" stroke="#65A3C8" stroke-width="1.1142857142857143" stroke-linecap="round" opacity="0.28"/>
        <line x1="126.17142857142856" y1="119.08571428571429" x2="473.8285714285714" y2="119.08571428571429" stroke="#65A3C8" stroke-width="1.1142857142857143" stroke-linecap="round" opacity="0.28"/>
        <line x1="126.17142857142856" y1="178.51428571428573" x2="473.8285714285714" y2="178.51428571428573" stroke="#65A3C8" stroke-width="1.1142857142857143" stroke-linecap="round" opacity="0.28"/>
        <line x1="126.17142857142856" y1="237.94285714285715" x2="473.8285714285714" y2="237.94285714285715" stroke="#65A3C8" stroke-width="1.1142857142857143" stroke-linecap="round" opacity="0.28"/>
        <path d="M 139.54285714285714 233.4857142857143 C 181.14285714285714 220.11428571428573 210.85714285714286 153.25714285714287 259.88571428571424 168.11428571428573 C 317.8285714285714 182.9714285714286 352 125.02857142857144 457.48571428571427 108.68571428571428" stroke="#1F4E79" stroke-width="5.942857142857143" stroke-linecap="round" stroke-linejoin="round" fill="none" />
        <circle cx="259.88571428571424" cy="168.11428571428573" r="8.914285714285715" fill="#E59A41" stroke="none" stroke-width="0" />
        <circle cx="352" cy="125.02857142857144" r="8.914285714285715" fill="#E59A41" stroke="none" stroke-width="0" />
        <circle cx="409.9428571428571" cy="230.51428571428573" r="28.228571428571428" fill="none" stroke="#1F4E79" stroke-width="4.457142857142857" />
        <line x1="429.25714285714287" y1="251.31428571428572" x2="463.42857142857144" y2="282.51428571428573" stroke="#1F4E79" stroke-width="5.942857142857143" stroke-linecap="round" />
      
    <g transform="translate(282.4 355) scale(0.14666666666666667)" opacity="0.5">
        <line x1="0" y1="60" x2="240" y2="60" stroke="#65A3C8" stroke-width="1" stroke-linecap="round" opacity="0.25"/>
        <line x1="0" y1="120" x2="240" y2="120" stroke="#65A3C8" stroke-width="1" stroke-linecap="round" opacity="0.25"/>
        <line x1="0" y1="180" x2="240" y2="180" stroke="#65A3C8" stroke-width="1" stroke-linecap="round" opacity="0.25"/>
        <line x1="60" y1="0" x2="60" y2="240" stroke="#65A3C8" stroke-width="1" stroke-linecap="round" opacity="0.25"/>
        <line x1="120" y1="0" x2="120" y2="240" stroke="#65A3C8" stroke-width="1" stroke-linecap="round" opacity="0.25"/>
        <line x1="180" y1="0" x2="180" y2="240" stroke="#65A3C8" stroke-width="1" stroke-linecap="round" opacity="0.25"/>
        <path d="M20 170 C60 150 80 100 120 110 C160 120 170 70 220 60" stroke="#1F4E79" stroke-width="3" stroke-linecap="round" stroke-linejoin="round" fill="none" opacity="0.55"/>
        <circle cx="80" cy="100" r="5" fill="#E59A41" stroke="none" stroke-width="0" opacity="0.7"/>
      </g>
    <line x1="24" y1="355" x2="576" y2="355" stroke="#65A3C8" stroke-width="1" opacity="0.35"/>
    <g transform="translate(30 342) scale(0.4375)">
      <rect width="64" height="64" rx="16" fill="#EDF6FB"/>
      
        <circle cx="24" cy="24" r="12" fill="none" stroke="#1F4E79" stroke-width="3" />
        <circle cx="24" cy="24" r="4" fill="#E59A41" stroke="none" stroke-width="0" />
        <line x1="36" y1="36" x2="50" y2="50" stroke="#1F4E79" stroke-width="4" stroke-linecap="round" />
        <rect x="12" y="12" width="40" height="40" rx="12" fill="none" stroke="#65A3C8" stroke-width="1.5" opacity="0.45" stroke-dasharray="4 5"/>
      
    </g>
  
</svg>
