<svg xmlns="http://www.w3.org/2000/svg" width="2400" height="1600" viewBox="0 0 2400 1600" fill="none" role="img" aria-labelledby="titlens27vi desco9t385">
  <title id="titlens27vi">Society &amp; Mind collection cover</title>
  <desc id="desco9t385">Conversation, networks, relationships, and shifting perspective. Collection cover artwork at master resolution.</desc>
  
  
    <rect width="2400" height="1600" fill="#FBF1F6"/>
    <rect x="48" y="48" width="2304" height="1504" rx="64" fill="#EFD9E5" opacity="0.34"/>
    
        <rect x="409.59999999999997" y="226.74285714285713" width="1580.8" height="915.2" rx="77.25714285714287" fill="#ffffff" stroke="#D38DAE" stroke-width="2.5" opacity="0.78"/>
        <circle cx="688.9142857142857" cy="476.34285714285716" r="53.48571428571429" fill="#D38DAE" stroke="none" stroke-width="0" />
        <circle cx="1610.057142857143" cy="452.57142857142856" r="53.48571428571429" fill="#5B83C8" stroke="none" stroke-width="0" />
        <circle cx="1188.1142857142859" cy="916.1142857142858" r="53.48571428571429" fill="#8A3E67" stroke="none" stroke-width="0" />
        <path d="M 742.4 476.34285714285716 C 956.3428571428572 405.02857142857147 1039.542857142857 571.4285714285714 1182.1714285714286 862.6285714285715" stroke="#8A3E67" stroke-width="23.771428571428572" stroke-linecap="round" stroke-linejoin="round" fill="none" opacity="0.8"/>
        <path d="M 1556.5714285714287 452.57142857142856 C 1413.942857142857 535.7714285714286 1324.8 654.6285714285715 1235.6571428571428 862.6285714285715" stroke="#5B83C8" stroke-width="23.771428571428572" stroke-linecap="round" stroke-linejoin="round" fill="none" opacity="0.7"/>
        <path d="M 784 452.57142857142856 C 980.1142857142858 339.65714285714284 1301.0285714285715 345.6 1509.0285714285715 446.62857142857143" stroke="#D38DAE" stroke-width="11.885714285714286" stroke-linecap="round" stroke-linejoin="round" fill="none" />
        <path d="M 540.3428571428572 315.8857142857143 h 326.8571428571429 l 71.31428571428572 71.31428571428572 h -326.8571428571429 z" stroke="#8A3E67" stroke-width="5.942857142857143" stroke-linecap="round" stroke-linejoin="round" fill="#EFD9E5" opacity="0.7"/>
        <path d="M 1413.942857142857 672.4571428571429 h 303.0857142857143 l 53.48571428571429 53.48571428571429 h -303.0857142857143 z" stroke="#5B83C8" stroke-width="5.942857142857143" stroke-linecap="round" stroke-linejoin="round" fill="#ffffff" opacity="0.72"/>
      
    <g transform="translate(1129.6 1421) scale(0.5866666666666667)" opacity="0.5">
        <circle cx="60" cy="70" r="8" fill="#D38DAE" stroke="none" stroke-width="0" opacity="0.65"/>
        <circle cx="180" cy="60" r="8" fill="#5B83C8" stroke="none" stroke-width="0" opacity="0.65"/>
        <circle cx="120" cy="170" r="8" fill="#8A3E67" stroke="none" stroke-width="0" opacity="0.65"/>
        <path d="M68 70 C90 60 110 70 120 90 C130 110 145 120 172 120" stroke="#8A3E67" stroke-width="3" stroke-linecap="round" stroke-linejoin="round" fill="none" opacity="0.4"/>
        <path d="M72 80 C84 120 94 134 114 162" stroke="#5B83C8" stroke-width="2" stroke-linecap="round" stroke-linejoin="round" fill="none" opacity="0.45"/>
        <path d="M170 68 C152 88 144 110 132 164" stroke="#D38DAE" stroke-width="2" stroke-linecap="round" stroke-linejoin="round" fill="none" opacity="0.45"/>
        <path d="M24 26 h46 l12 12 h-46 z" stroke="#8A3E67" stroke-width="2" stroke-linecap="round" stroke-linejoin="round" fill="#EFD9E5" opacity="0.7"/>
      </g>
    <line x1="96" y1="1421" x2="2304" y2="1421" stroke="#D38DAE" stroke-width="1" opacity="0.35"/>
    <g transform="translate(102 1350) scale(2.3125)">
      <rect width="64" height="64" rx="16" fill="#FBF1F6"/>
      
        <circle cx="18" cy="22" r="7" fill="#D38DAE" stroke="none" stroke-width="0" />
        <circle cx="46" cy="22" r="7" fill="#5B83C8" stroke="none" stroke-width="0" />
        <circle cx="32" cy="42" r="7" fill="#8A3E67" stroke="none" stroke-width="0" />
        <path d="M25 22 L39 22 M23 27 L29 36 M41 27 L35 36" stroke="#4A2138" stroke-width="3" stroke-linecap="round" stroke-linejoin="round" fill="none" />
        <path d="M12 14 h10 l4 4 h-10 z" stroke="#8A3E67" stroke-width="2" stroke-linecap="round" stroke-linejoin="round" fill="#FBF1F6" />
      
    </g>
  
</svg>
