<svg xmlns="http://www.w3.org/2000/svg" width="1600" height="900" viewBox="0 0 1600 900" fill="none" role="img" aria-labelledby="titlecnavxu descfvubhr">
  <title id="titlecnavxu">Attention experience hero</title>
  <desc id="descfvubhr">A spotlight of focus brightens one target while nearby changes fall into the margins.</desc>
  
  
    <rect width="1600" height="900" fill="#FBF1F6"/>
    <rect x="36" y="36" width="1528" height="828" rx="45" fill="#EFD9E5" opacity="0.34"/>
    <rect x="784" y="72" width="736" height="756" rx="44" fill="#ffffff" opacity="0.72" stroke="#D38DAE" stroke-width="2"/>
    <g transform="translate(843 237.5625) scale(1.93125)">
        <rect x="48" y="52" width="224" height="116" rx="20" fill="#ffffff" stroke="#D38DAE" stroke-width="2.5"/>
        <circle cx="96" cy="88" r="9" fill="#D38DAE" stroke="none" stroke-width="0" /><circle cx="144" cy="88" r="9" fill="#D38DAE" stroke="none" stroke-width="0" /><circle cx="192" cy="88" r="9" fill="#D38DAE" stroke="none" stroke-width="0" /><circle cx="240" cy="88" r="9" fill="#D38DAE" stroke="none" stroke-width="0" />
        <circle cx="96" cy="132" r="9" fill="#D38DAE" stroke="none" stroke-width="0" /><circle cx="144" cy="132" r="9" fill="#5B83C8" stroke="none" stroke-width="0" /><circle cx="192" cy="132" r="9" fill="#D38DAE" stroke="none" stroke-width="0" /><circle cx="240" cy="132" r="9" fill="#D38DAE" stroke="none" stroke-width="0" />
        <path d="M144 22 C118 54 114 92 124 132 C132 164 148 176 160 182 C182 168 190 150 194 122 C198 86 182 50 168 22 Z" stroke="#8A3E67" stroke-width="4" stroke-linecap="round" stroke-linejoin="round" fill="rgba(91,131,200,0.14)" />
      </g>
    <path d="M72 828 C 448 756 672 828 752 799.2" stroke="#5B83C8" stroke-width="3" opacity="0.5" stroke-linecap="round" fill="none"/>
    <line x1="72" y1="828" x2="640" y2="828" stroke="#D38DAE" stroke-width="1" opacity="0.3"/>
  
</svg>
