<svg xmlns="http://www.w3.org/2000/svg" width="600" height="400" viewBox="0 0 600 400" fill="none" role="img" aria-labelledby="titlevccxxi descsxrjhd">
  <title id="titlevccxxi">Mathematics collection thumbnail</title>
  <desc id="descsxrjhd">Elegant abstraction, symmetry, proof, and curves. Collection thumbnail artwork.</desc>
  
  
    <rect width="600" height="400" fill="#F2F1FB"/>
    <rect x="12" y="12" width="576" height="376" rx="16" fill="#DEDBF3" opacity="0.34"/>
    
        <rect x="99.42857142857142" y="59.65714285714286" width="401.14285714285717" height="222.85714285714286" rx="20.8" fill="#ffffff" stroke="#9E93DB" stroke-width="2.5" opacity="0.78"/>
        <path d="M 157.37142857142857 240.9142857142857 C 157.37142857142857 153.25714285714287 231.65714285714284 96.8 297.02857142857147 96.8 C 354.9714285714286 96.8 399.54285714285714 135.42857142857144 399.54285714285714 182.9714285714286 C 399.54285714285714 218.62857142857143 371.31428571428575 246.85714285714286 331.2 246.85714285714286 C 289.6 246.85714285714286 259.88571428571424 215.65714285714287 259.88571428571424 182.9714285714286 C 259.88571428571424 148.8 286.62857142857143 126.51428571428572 317.8285714285714 126.51428571428572" stroke="#5A46A6" stroke-width="5.942857142857143" stroke-linecap="round" stroke-linejoin="round" fill="none" />
        <line x1="126.17142857142856" y1="182.9714285714286" x2="473.8285714285714" y2="182.9714285714286" stroke="#9E93DB" stroke-width="1.4857142857142858" stroke-linecap="round" opacity="0.28"/>
        <line x1="300" y1="87.88571428571429" x2="300" y2="264.6857142857143" stroke="#9E93DB" stroke-width="1.4857142857142858" stroke-linecap="round" opacity="0.28"/>
        <circle cx="317.8285714285714" cy="126.51428571428572" r="8.17142857142857" fill="#D59248" stroke="none" stroke-width="0" />
        <rect x="360.9142857142857" y="117.60000000000001" width="78.74285714285715" height="57.94285714285714" rx="11.885714285714286" fill="#fffaf6" stroke="#5A46A6" stroke-width="2" opacity="0.86"/>
        
        
      
    <g transform="translate(282.4 355) scale(0.14666666666666667)" opacity="0.5">
        <path d="M30 170 C30 90 90 36 152 36 C192 36 210 70 210 96 C210 130 182 152 150 152 C122 152 98 132 98 104 C98 76 120 56 146 56" stroke="#5A46A6" stroke-width="3" stroke-linecap="round" stroke-linejoin="round" fill="none" opacity="0.45"/>
        <line x1="20" y1="120" x2="220" y2="120" stroke="#9E93DB" stroke-width="1.5" stroke-linecap="round" opacity="0.22"/>
        <line x1="120" y1="20" x2="120" y2="220" stroke="#9E93DB" stroke-width="1.5" stroke-linecap="round" opacity="0.22"/>
        <circle cx="146" cy="56" r="5" fill="#D59248" stroke="none" stroke-width="0" opacity="0.7"/>
      </g>
    <line x1="24" y1="355" x2="576" y2="355" stroke="#9E93DB" stroke-width="1" opacity="0.35"/>
    <g transform="translate(30 342) scale(0.4375)">
      <rect width="64" height="64" rx="16" fill="#F2F1FB"/>
      
        <path d="M16 44 C18 22 30 14 42 20 C50 24 48 38 38 42 C28 46 20 40 20 32 C20 22 30 18 38 24" stroke="#5A46A6" stroke-width="3" stroke-linecap="round" stroke-linejoin="round" fill="none" />
        <line x1="12" y1="32" x2="52" y2="32" stroke="#9E93DB" stroke-width="2" stroke-linecap="round" opacity="0.6"/>
        <circle cx="38" cy="24" r="3" fill="#D59248" stroke="none" stroke-width="0" />
        <circle cx="20" cy="32" r="3" fill="#D59248" stroke="none" stroke-width="0" />
      
    </g>
  
</svg>
