<svg xmlns="http://www.w3.org/2000/svg" width="600" height="400" viewBox="0 0 600 400" fill="none" role="img" aria-labelledby="title27dh58 desckbsa33">
  <title id="title27dh58">Nature collection thumbnail</title>
  <desc id="desckbsa33">Ecosystems, flows, branching systems, and living cycles. Collection thumbnail artwork.</desc>
  
  
    <rect width="600" height="400" fill="#EEF5EC"/>
    <rect x="12" y="12" width="576" height="376" rx="16" fill="#D8E6D2" opacity="0.34"/>
    
        <rect x="97.94285714285714" y="59.65714285714286" width="404.11428571428576" height="222.85714285714286" rx="20.8" fill="#ffffff" stroke="#78A67C" stroke-width="2.5" opacity="0.76"/>
        <path d="M 149.94285714285712 89.37142857142857 C 164.8 139.8857142857143 193.0285714285714 157.71428571428572 231.65714285714284 184.45714285714286 C 279.2 217.14285714285714 307.42857142857144 234.9714285714286 322.2857142857143 269.1428571428571" stroke="#78A67C" stroke-width="5.942857142857143" stroke-linecap="round" stroke-linejoin="round" fill="none" opacity="0.8"/>
        <path d="M 268.8 87.88571428571429 C 256.9142857142857 122.05714285714286 268.8 157.71428571428572 311.8857142857143 182.9714285714286 C 365.37142857142857 212.68571428571428 409.9428571428571 223.0857142857143 448.57142857142856 263.20000000000005" stroke="#4A8CC7" stroke-width="5.942857142857143" stroke-linecap="round" stroke-linejoin="round" fill="none" opacity="0.7"/>
        <path d="M 231.65714285714284 184.45714285714286 C 206.4 185.94285714285715 185.6 205.25714285714287 167.77142857142857 233.4857142857143" stroke="#245B45" stroke-width="2.9714285714285715" stroke-linecap="round" stroke-linejoin="round" fill="none" />
        <path d="M 311.8857142857143 182.9714285714286 C 340.1142857142857 181.4857142857143 365.37142857142857 163.65714285714287 395.0857142857143 130.9714285714286" stroke="#245B45" stroke-width="2.9714285714285715" stroke-linecap="round" stroke-linejoin="round" fill="none" />
        <circle cx="167.77142857142857" cy="233.4857142857143" r="8.17142857142857" fill="#245B45" stroke="none" stroke-width="0" />
        <circle cx="395.0857142857143" cy="130.9714285714286" r="8.17142857142857" fill="#78A67C" stroke="none" stroke-width="0" />
        <circle cx="322.2857142857143" cy="269.1428571428571" r="8.17142857142857" fill="#4A8CC7" stroke="none" stroke-width="0" />
      
    <g transform="translate(282.4 355) scale(0.14666666666666667)" opacity="0.5">
        <path d="M20 30 C40 70 60 90 90 110 C130 140 150 170 160 210" stroke="#78A67C" stroke-width="3" stroke-linecap="round" stroke-linejoin="round" fill="none" opacity="0.35"/>
        <path d="M120 20 C110 70 130 110 170 140 C200 160 215 190 220 220" stroke="#4A8CC7" stroke-width="3" stroke-linecap="round" stroke-linejoin="round" fill="none" opacity="0.35"/>
        <path d="M90 110 C70 120 55 135 40 160" stroke="#245B45" stroke-width="2" stroke-linecap="round" stroke-linejoin="round" fill="none" opacity="0.35"/>
        <path d="M170 140 C190 130 205 115 220 90" stroke="#245B45" stroke-width="2" stroke-linecap="round" stroke-linejoin="round" fill="none" opacity="0.35"/>
      </g>
    <line x1="24" y1="355" x2="576" y2="355" stroke="#78A67C" stroke-width="1" opacity="0.35"/>
    <g transform="translate(30 342) scale(0.4375)">
      <rect width="64" height="64" rx="16" fill="#EEF5EC"/>
      
        <path d="M18 48 C18 34 24 24 32 16 C40 24 46 34 46 48" stroke="#245B45" stroke-width="3" stroke-linecap="round" stroke-linejoin="round" fill="none" />
        <path d="M32 16 L32 50" stroke="#78A67C" stroke-width="3" stroke-linecap="round" stroke-linejoin="round" fill="none" />
        <path d="M32 28 C26 28 22 32 20 38" stroke="#4A8CC7" stroke-width="3" stroke-linecap="round" stroke-linejoin="round" fill="none" />
        <path d="M32 34 C38 34 42 38 44 44" stroke="#4A8CC7" stroke-width="3" stroke-linecap="round" stroke-linejoin="round" fill="none" />
      
    </g>
  
</svg>
