<svg xmlns="http://www.w3.org/2000/svg" width="1600" height="900" viewBox="0 0 1600 900" fill="none" role="img" aria-labelledby="titlesufsdo desc8soxkp">
  <title id="titlesufsdo">Creativity background</title>
  <desc id="desc8soxkp">Layered composition, sketch marks, and expressive assembly.</desc>
  
  
    <rect width="1600" height="900" fill="#FBF0E8"/>
    <rect x="30" y="30" width="1540" height="840" rx="48" fill="#F1D8C7" opacity="0.3"/>
    <g transform="translate(140 120)">
        <rect x="20" y="28" width="90" height="58" rx="18" fill="#D38552" stroke="#8A3C3B" opacity="0.3" stroke-width="1.5"/>
        <rect x="84" y="62" width="102" height="70" rx="18" fill="#7F66D9" stroke="#8A3C3B" opacity="0.28" stroke-width="1.5"/>
        <rect x="150" y="28" width="70" height="110" rx="18" fill="#F1D8C7" stroke="#8A3C3B" opacity="0.45" stroke-width="1.5"/>
        <path d="M26 178 C54 152 84 188 118 156 C144 132 168 162 208 144" stroke="#8A3C3B" stroke-width="3" stroke-linecap="round" stroke-linejoin="round" fill="none" opacity="0.45"/>
      </g>
    <rect x="980" y="120" width="460" height="300" rx="36" fill="#ffffff" opacity="0.68" stroke="#D38552" stroke-width="2"/>
    
        <rect x="1043.75" y="171.1904761904762" width="332.5" height="183.33333333333334" rx="16.25" fill="#ffffff" stroke="#D38552" stroke-width="2.5" opacity="0.72"/>
        <rect x="1075" y="196.1904761904762" width="97.5" height="66.66666666666667" rx="15" fill="#D38552" stroke="#8A3C3B" opacity="0.45" stroke-width="2.5"/>
        <rect x="1151.25" y="184.28571428571428" width="130" height="78.57142857142857" rx="15" fill="#7F66D9" stroke="#8A3C3B" opacity="0.34" stroke-width="2.5"/>
        <rect x="1202.5" y="234.28571428571428" width="113.75" height="76.19047619047619" rx="15" fill="#F1D8C7" stroke="#8A3C3B" opacity="0.82" stroke-width="2.5"/>
        <path d="M 1082.5 311.66666666666663 C 1120 280.7142857142857 1145 329.5238095238095 1186.25 295 C 1218.75 267.6190476190476 1253.75 295 1335 256.9047619047619" stroke="#8A3C3B" stroke-width="5.625" stroke-linecap="round" stroke-linejoin="round" fill="none" />
        <circle cx="1126.25" cy="227.14285714285714" r="7.5" fill="#8A3C3B" stroke="none" stroke-width="0" />
        <circle cx="1228.75" cy="271.1904761904762" r="7.5" fill="#7F66D9" stroke="none" stroke-width="0" />
      
    <path d="M90 720 C300 620 530 640 730 700 C930 760 1170 790 1510 650" stroke="#7F66D9" stroke-width="10" opacity="0.55" stroke-linecap="round"/>
    <path d="M90 770 C330 690 570 720 760 760 C990 810 1210 820 1480 730" stroke="#8A3C3B" stroke-width="4" opacity="0.35" stroke-linecap="round"/>
  
</svg>
