<svg xmlns="http://www.w3.org/2000/svg" width="640" height="420" viewBox="0 0 640 420" fill="none" role="img" aria-labelledby="titleeush21 descd62rni">
  <title id="titleeush21">History illustration</title>
  <desc id="descd62rni">Maps, paper, archives, and timelines.</desc>
  
  
      <rect width="640" height="420" rx="32" fill="#F7F0E1"/>
      <rect x="20" y="20" width="600" height="380" rx="28" fill="#E7D8BE" opacity="0.34"/>
      
        <rect x="56" y="44" width="528" height="308" rx="26" fill="#fffaf1" stroke="#B88453" stroke-width="2.5" opacity="0.82"/>
        <path d="M 114 114 C 180 80 260 92 304 142 C 356 196 440 196 530 144" stroke="#7A4A2A" stroke-width="7" stroke-linecap="round" stroke-linejoin="round" fill="none" opacity="0.55"/>
        <line x1="132" y1="84" x2="132" y2="304" stroke="#B88453" stroke-width="2" stroke-linecap="round" opacity="0.35" stroke-dasharray="8 10"/>
        <line x1="266" y1="84" x2="266" y2="304" stroke="#B88453" stroke-width="2" stroke-linecap="round" opacity="0.35" stroke-dasharray="8 10"/>
        <line x1="400" y1="84" x2="400" y2="304" stroke="#B88453" stroke-width="2" stroke-linecap="round" opacity="0.35" stroke-dasharray="8 10"/>
        <circle cx="132" cy="236" r="13" fill="#B94F3C" stroke="none" stroke-width="0" />
        <circle cx="266" cy="170" r="13" fill="#B88453" stroke="none" stroke-width="0" />
        <circle cx="400" cy="214" r="13" fill="#7A4A2A" stroke="none" stroke-width="0" />
        <rect x="430" y="84" width="108" height="92" rx="16" fill="#ffffff" stroke="#7A4A2A" stroke-width="2" opacity="0.8"/>
        <line x1="448" y1="104" x2="520" y2="104" stroke="#B88453" stroke-width="2" stroke-linecap="round" />
        <line x1="448" y1="126" x2="520" y2="126" stroke="#B88453" stroke-width="2" stroke-linecap="round" />
        <line x1="448" y1="148" x2="490" y2="148" stroke="#B88453" stroke-width="2" stroke-linecap="round" />
      
    
</svg>
