<svg xmlns="http://www.w3.org/2000/svg" width="640" height="420" viewBox="0 0 640 420" fill="none" role="img" aria-labelledby="titlep908kf desc5dyupf">
  <title id="titlep908kf">Science illustration</title>
  <desc id="desc5dyupf">Observation, instruments, experiment, and measured uncertainty.</desc>
  
  
      <rect width="640" height="420" rx="32" fill="#EDF6FB"/>
      <rect x="20" y="20" width="600" height="380" rx="28" fill="#D4E8F2" opacity="0.34"/>
      
        <rect x="54" y="44" width="532" height="308" rx="26" fill="#ffffff" stroke="#65A3C8" stroke-width="2.5" opacity="0.8"/>
        <line x1="96" y1="84" x2="96" y2="318" stroke="#65A3C8" stroke-width="1.5" stroke-linecap="round" opacity="0.28"/>
        <line x1="196" y1="84" x2="196" y2="318" stroke="#65A3C8" stroke-width="1.5" stroke-linecap="round" opacity="0.28"/>
        <line x1="296" y1="84" x2="296" y2="318" stroke="#65A3C8" stroke-width="1.5" stroke-linecap="round" opacity="0.28"/>
        <line x1="396" y1="84" x2="396" y2="318" stroke="#65A3C8" stroke-width="1.5" stroke-linecap="round" opacity="0.28"/>
        <line x1="496" y1="84" x2="496" y2="318" stroke="#65A3C8" stroke-width="1.5" stroke-linecap="round" opacity="0.28"/>
        <line x1="86" y1="128" x2="554" y2="128" stroke="#65A3C8" stroke-width="1.5" stroke-linecap="round" opacity="0.28"/>
        <line x1="86" y1="208" x2="554" y2="208" stroke="#65A3C8" stroke-width="1.5" stroke-linecap="round" opacity="0.28"/>
        <line x1="86" y1="288" x2="554" y2="288" stroke="#65A3C8" stroke-width="1.5" stroke-linecap="round" opacity="0.28"/>
        <path d="M 104 282 C 160 264 200 174 266 194 C 344 214 390 136 532 114" stroke="#1F4E79" stroke-width="8" stroke-linecap="round" stroke-linejoin="round" fill="none" />
        <circle cx="266" cy="194" r="12" fill="#E59A41" stroke="none" stroke-width="0" />
        <circle cx="390" cy="136" r="12" fill="#E59A41" stroke="none" stroke-width="0" />
        <circle cx="468" cy="278" r="38" fill="none" stroke="#1F4E79" stroke-width="6" />
        <line x1="494" y1="306" x2="540" y2="348" stroke="#1F4E79" stroke-width="8" stroke-linecap="round" />
      
    
</svg>
