<svg xmlns="http://www.w3.org/2000/svg" width="640" height="420" viewBox="0 0 640 420" fill="none" role="img" aria-labelledby="titlesdbl9w descot9uq1">
  <title id="titlesdbl9w">Society &amp; Mind illustration</title>
  <desc id="descot9uq1">Conversation, networks, relationships, and shifting perspective.</desc>
  
  
      <rect width="640" height="420" rx="32" fill="#FBF1F6"/>
      <rect x="20" y="20" width="600" height="380" rx="28" fill="#EFD9E5" opacity="0.34"/>
      
        <rect x="54" y="44" width="532" height="308" rx="26" fill="#ffffff" stroke="#D38DAE" stroke-width="2.5" opacity="0.78"/>
        <circle cx="148" cy="128" r="18" fill="#D38DAE" stroke="none" stroke-width="0" />
        <circle cx="458" cy="120" r="18" fill="#5B83C8" stroke="none" stroke-width="0" />
        <circle cx="316" cy="276" r="18" fill="#8A3E67" stroke="none" stroke-width="0" />
        <path d="M 166 128 C 238 104 266 160 314 258" stroke="#8A3E67" stroke-width="8" stroke-linecap="round" stroke-linejoin="round" fill="none" opacity="0.8"/>
        <path d="M 440 120 C 392 148 362 188 332 258" stroke="#5B83C8" stroke-width="8" stroke-linecap="round" stroke-linejoin="round" fill="none" opacity="0.7"/>
        <path d="M 180 120 C 246 82 354 84 424 118" stroke="#D38DAE" stroke-width="4" stroke-linecap="round" stroke-linejoin="round" fill="none" />
        <path d="M 98 74 h 110 l 24 24 h -110 z" stroke="#8A3E67" stroke-width="2" stroke-linecap="round" stroke-linejoin="round" fill="#EFD9E5" opacity="0.7"/>
        <path d="M 392 194 h 102 l 18 18 h -102 z" stroke="#5B83C8" stroke-width="2" stroke-linecap="round" stroke-linejoin="round" fill="#ffffff" opacity="0.72"/>
      
    
</svg>
