<svg xmlns="http://www.w3.org/2000/svg" width="1600" height="900" viewBox="0 0 1600 900" fill="none" role="img" aria-labelledby="titleo2rmjq desc8nzqlr">
  <title id="titleo2rmjq">Dueling Accounts experience hero</title>
  <desc id="desc8nzqlr">Two archival accounts describe one event from different angles and with different omissions.</desc>
  
  
    <rect width="1600" height="900" fill="#F7F0E1"/>
    <rect x="36" y="36" width="1528" height="828" rx="45" fill="#E7D8BE" opacity="0.34"/>
    <rect x="784" y="72" width="736" height="756" rx="44" fill="#ffffff" opacity="0.72" stroke="#B88453" stroke-width="2"/>
    <g transform="translate(843 237.5625) scale(1.93125)">
        <rect x="54" y="40" width="92" height="136" rx="18" fill="#fffaf1" stroke="#7A4A2A" stroke-width="2.5" transform="rotate(-6 100 108)"/>
        <rect x="176" y="40" width="92" height="136" rx="18" fill="#ffffff" stroke="#B88453" stroke-width="2.5" transform="rotate(6 222 108)"/>
        <line x1="74" y1="78" x2="126" y2="78" stroke="#B88453" stroke-width="2" stroke-linecap="round" />
        <line x1="74" y1="98" x2="128" y2="98" stroke="#B88453" stroke-width="2" stroke-linecap="round" />
        <line x1="194" y1="74" x2="246" y2="74" stroke="#7A4A2A" stroke-width="2" stroke-linecap="round" />
        <line x1="194" y1="94" x2="248" y2="94" stroke="#7A4A2A" stroke-width="2" stroke-linecap="round" />
        <circle cx="160" cy="114" r="12" fill="#B94F3C" stroke="none" stroke-width="0" />
      </g>
    <path d="M72 828 C 448 756 672 828 752 799.2" stroke="#B94F3C" stroke-width="3" opacity="0.5" stroke-linecap="round" fill="none"/>
    <line x1="72" y1="828" x2="640" y2="828" stroke="#B88453" stroke-width="1" opacity="0.3"/>
  
</svg>
