<svg xmlns="http://www.w3.org/2000/svg" width="1200" height="900" viewBox="0 0 1200 900" fill="none" role="img" aria-labelledby="titlef6i2h6 desc8lj6x6">
  <title id="titlef6i2h6">Optimization experience thumbnail</title>
  <desc id="desc8lj6x6">A path moves across constraints toward a better solution without ever being perfect.</desc>
  
  
    <rect width="1200" height="900" fill="#EFF4FB"/>
    <rect x="36" y="36" width="1128" height="828" rx="45" fill="#D8E2F3" opacity="0.34"/>
    <rect x="588" y="72" width="552" height="756" rx="33" fill="#ffffff" opacity="0.72" stroke="#7AA2D8" stroke-width="2"/>
    <g transform="translate(632 290.5) scale(1.45)">
        <path d="M60 162 C82 130 108 108 138 96 C172 82 210 80 252 92" stroke="#7AA2D8" stroke-width="3" stroke-linecap="round" stroke-linejoin="round" fill="none" />
        <path d="M74 174 C96 142 122 120 150 108 C182 96 214 96 244 108" stroke="#7AA2D8" stroke-width="3" stroke-linecap="round" stroke-linejoin="round" fill="none" />
        <path d="M92 188 C112 160 136 140 162 130 C190 120 214 120 234 128" stroke="#7AA2D8" stroke-width="3" stroke-linecap="round" stroke-linejoin="round" fill="none" />
        <path d="M68 170 L116 146 L154 126 L204 112 L246 116" stroke="#234A83" stroke-width="5" stroke-linecap="round" stroke-linejoin="round" fill="none" />
        <circle cx="246" cy="116" r="8" fill="#D88A4C" stroke="none" stroke-width="0" />
      </g>
    <path d="M72 828 C 336 756 504 828 564 799.2" stroke="#D88A4C" stroke-width="3" opacity="0.5" stroke-linecap="round" fill="none"/>
    <line x1="72" y1="828" x2="480" y2="828" stroke="#7AA2D8" stroke-width="1" opacity="0.3"/>
  
</svg>
