<svg xmlns="http://www.w3.org/2000/svg" width="2400" height="1600" viewBox="0 0 2400 1600" fill="none" role="img" aria-labelledby="titley2zdby descfiqziv">
  <title id="titley2zdby">Engineering collection cover</title>
  <desc id="descfiqziv">Blueprint language, construction, load paths, and mechanical precision. Collection cover artwork at master resolution.</desc>
  
  
    <rect width="2400" height="1600" fill="#EFF4FB"/>
    <rect x="48" y="48" width="2304" height="1504" rx="64" fill="#D8E2F3" opacity="0.34"/>
    
        <rect x="397.71428571428567" y="238.62857142857143" width="1604.5714285714287" height="891.4285714285714" rx="83.2" fill="#ffffff" stroke="#7AA2D8" stroke-width="2.5" opacity="0.78"/>
        <line x1="534.4" y1="987.4285714285714" x2="1865.6000000000001" y2="987.4285714285714" stroke="#234A83" stroke-width="20.8" stroke-linecap="round" />
        <line x1="653.2571428571429" y1="987.4285714285714" x2="885.0285714285715" y2="482.2857142857143" stroke="#7AA2D8" stroke-width="20.8" stroke-linecap="round" />
        <line x1="1223.7714285714287" y1="987.4285714285714" x2="1449.6" y2="482.2857142857143" stroke="#7AA2D8" stroke-width="20.8" stroke-linecap="round" />
        <line x1="885.0285714285715" y1="482.2857142857143" x2="1449.6" y2="482.2857142857143" stroke="#D88A4C" stroke-width="20.8" stroke-linecap="round" />
        <line x1="653.2571428571429" y1="785.3714285714286" x2="885.0285714285715" y2="482.2857142857143" stroke="#234A83" stroke-width="8.914285714285715" stroke-linecap="round" />
        <line x1="885.0285714285715" y1="482.2857142857143" x2="1110.857142857143" y2="785.3714285714286" stroke="#234A83" stroke-width="8.914285714285715" stroke-linecap="round" />
        <line x1="1110.857142857143" y1="785.3714285714286" x2="1449.6" y2="482.2857142857143" stroke="#234A83" stroke-width="8.914285714285715" stroke-linecap="round" />
        <line x1="1449.6" y1="482.2857142857143" x2="1705.142857142857" y2="785.3714285714286" stroke="#234A83" stroke-width="8.914285714285715" stroke-linecap="round" />
        <line x1="504.68571428571425" y1="387.2" x2="1895.3142857142857" y2="387.2" stroke="#7AA2D8" stroke-width="4.457142857142857" stroke-linecap="round" opacity="0.28" stroke-dasharray="8 10"/>
        <line x1="504.68571428571425" y1="636.8000000000001" x2="1895.3142857142857" y2="636.8000000000001" stroke="#7AA2D8" stroke-width="4.457142857142857" stroke-linecap="round" opacity="0.28" stroke-dasharray="8 10"/>
      
    <g transform="translate(1129.6 1421) scale(0.5866666666666667)" opacity="0.5">
        <line x1="20" y1="180" x2="220" y2="180" stroke="#7AA2D8" stroke-width="2" stroke-linecap="round" opacity="0.4"/>
        <line x1="40" y1="180" x2="90" y2="70" stroke="#234A83" stroke-width="2" stroke-linecap="round" opacity="0.45"/>
        <line x1="140" y1="180" x2="190" y2="70" stroke="#234A83" stroke-width="2" stroke-linecap="round" opacity="0.45"/>
        <line x1="90" y1="70" x2="140" y2="70" stroke="#D88A4C" stroke-width="2" stroke-linecap="round" opacity="0.55"/>
        <line x1="20" y1="40" x2="220" y2="40" stroke="#7AA2D8" stroke-width="1" stroke-linecap="round" opacity="0.18" stroke-dasharray="6 8"/>
        <line x1="20" y1="110" x2="220" y2="110" stroke="#7AA2D8" stroke-width="1" stroke-linecap="round" opacity="0.18" stroke-dasharray="6 8"/>
        <line x1="80" y1="20" x2="80" y2="220" stroke="#7AA2D8" stroke-width="1" stroke-linecap="round" opacity="0.18" stroke-dasharray="6 8"/>
        <line x1="160" y1="20" x2="160" y2="220" stroke="#7AA2D8" stroke-width="1" stroke-linecap="round" opacity="0.18" stroke-dasharray="6 8"/>
      </g>
    <line x1="96" y1="1421" x2="2304" y2="1421" stroke="#7AA2D8" stroke-width="1" opacity="0.35"/>
    <g transform="translate(102 1350) scale(2.3125)">
      <rect width="64" height="64" rx="16" fill="#EFF4FB"/>
      
        <line x1="10" y1="46" x2="54" y2="46" stroke="#234A83" stroke-width="3" stroke-linecap="round" />
        <line x1="16" y1="46" x2="24" y2="20" stroke="#7AA2D8" stroke-width="3" stroke-linecap="round" />
        <line x1="32" y1="46" x2="32" y2="18" stroke="#7AA2D8" stroke-width="3" stroke-linecap="round" />
        <line x1="48" y1="46" x2="40" y2="20" stroke="#7AA2D8" stroke-width="3" stroke-linecap="round" />
        <line x1="24" y1="20" x2="40" y2="20" stroke="#D88A4C" stroke-width="3" stroke-linecap="round" />
        <line x1="16" y1="36" x2="32" y2="18" stroke="#234A83" stroke-width="2" stroke-linecap="round" />
        <line x1="32" y1="18" x2="48" y2="36" stroke="#234A83" stroke-width="2" stroke-linecap="round" />
      
    </g>
  
</svg>
