<svg xmlns="http://www.w3.org/2000/svg" width="600" height="400" viewBox="0 0 600 400" fill="none" role="img" aria-labelledby="title8cwcd1 desc2yjwsv">
  <title id="title8cwcd1">Engineering collection thumbnail</title>
  <desc id="desc2yjwsv">Blueprint language, construction, load paths, and mechanical precision. Collection thumbnail artwork.</desc>
  
  
    <rect width="600" height="400" fill="#EFF4FB"/>
    <rect x="12" y="12" width="576" height="376" rx="16" fill="#D8E2F3" opacity="0.34"/>
    
        <rect x="99.42857142857142" y="59.65714285714286" width="401.14285714285717" height="222.85714285714286" rx="20.8" fill="#ffffff" stroke="#7AA2D8" stroke-width="2.5" opacity="0.78"/>
        <line x1="133.6" y1="246.85714285714286" x2="466.40000000000003" y2="246.85714285714286" stroke="#234A83" stroke-width="5.2" stroke-linecap="round" />
        <line x1="163.31428571428572" y1="246.85714285714286" x2="221.25714285714287" y2="120.57142857142857" stroke="#7AA2D8" stroke-width="5.2" stroke-linecap="round" />
        <line x1="305.9428571428572" y1="246.85714285714286" x2="362.4" y2="120.57142857142857" stroke="#7AA2D8" stroke-width="5.2" stroke-linecap="round" />
        <line x1="221.25714285714287" y1="120.57142857142857" x2="362.4" y2="120.57142857142857" stroke="#D88A4C" stroke-width="5.2" stroke-linecap="round" />
        <line x1="163.31428571428572" y1="196.34285714285716" x2="221.25714285714287" y2="120.57142857142857" stroke="#234A83" stroke-width="2.2285714285714286" stroke-linecap="round" />
        <line x1="221.25714285714287" y1="120.57142857142857" x2="277.7142857142857" y2="196.34285714285716" stroke="#234A83" stroke-width="2.2285714285714286" stroke-linecap="round" />
        <line x1="277.7142857142857" y1="196.34285714285716" x2="362.4" y2="120.57142857142857" stroke="#234A83" stroke-width="2.2285714285714286" stroke-linecap="round" />
        <line x1="362.4" y1="120.57142857142857" x2="426.2857142857143" y2="196.34285714285716" stroke="#234A83" stroke-width="2.2285714285714286" stroke-linecap="round" />
        <line x1="126.17142857142856" y1="96.8" x2="473.8285714285714" y2="96.8" stroke="#7AA2D8" stroke-width="1.1142857142857143" stroke-linecap="round" opacity="0.28" stroke-dasharray="8 10"/>
        <line x1="126.17142857142856" y1="159.20000000000002" x2="473.8285714285714" y2="159.20000000000002" stroke="#7AA2D8" stroke-width="1.1142857142857143" stroke-linecap="round" opacity="0.28" stroke-dasharray="8 10"/>
      
    <g transform="translate(282.4 355) scale(0.14666666666666667)" opacity="0.5">
        <line x1="20" y1="180" x2="220" y2="180" stroke="#7AA2D8" stroke-width="2" stroke-linecap="round" opacity="0.4"/>
        <line x1="40" y1="180" x2="90" y2="70" stroke="#234A83" stroke-width="2" stroke-linecap="round" opacity="0.45"/>
        <line x1="140" y1="180" x2="190" y2="70" stroke="#234A83" stroke-width="2" stroke-linecap="round" opacity="0.45"/>
        <line x1="90" y1="70" x2="140" y2="70" stroke="#D88A4C" stroke-width="2" stroke-linecap="round" opacity="0.55"/>
        <line x1="20" y1="40" x2="220" y2="40" stroke="#7AA2D8" stroke-width="1" stroke-linecap="round" opacity="0.18" stroke-dasharray="6 8"/>
        <line x1="20" y1="110" x2="220" y2="110" stroke="#7AA2D8" stroke-width="1" stroke-linecap="round" opacity="0.18" stroke-dasharray="6 8"/>
        <line x1="80" y1="20" x2="80" y2="220" stroke="#7AA2D8" stroke-width="1" stroke-linecap="round" opacity="0.18" stroke-dasharray="6 8"/>
        <line x1="160" y1="20" x2="160" y2="220" stroke="#7AA2D8" stroke-width="1" stroke-linecap="round" opacity="0.18" stroke-dasharray="6 8"/>
      </g>
    <line x1="24" y1="355" x2="576" y2="355" stroke="#7AA2D8" stroke-width="1" opacity="0.35"/>
    <g transform="translate(30 342) scale(0.4375)">
      <rect width="64" height="64" rx="16" fill="#EFF4FB"/>
      
        <line x1="10" y1="46" x2="54" y2="46" stroke="#234A83" stroke-width="3" stroke-linecap="round" />
        <line x1="16" y1="46" x2="24" y2="20" stroke="#7AA2D8" stroke-width="3" stroke-linecap="round" />
        <line x1="32" y1="46" x2="32" y2="18" stroke="#7AA2D8" stroke-width="3" stroke-linecap="round" />
        <line x1="48" y1="46" x2="40" y2="20" stroke="#7AA2D8" stroke-width="3" stroke-linecap="round" />
        <line x1="24" y1="20" x2="40" y2="20" stroke="#D88A4C" stroke-width="3" stroke-linecap="round" />
        <line x1="16" y1="36" x2="32" y2="18" stroke="#234A83" stroke-width="2" stroke-linecap="round" />
        <line x1="32" y1="18" x2="48" y2="36" stroke="#234A83" stroke-width="2" stroke-linecap="round" />
      
    </g>
  
</svg>
